<mxfile host="app.diagrams.net" modified="2023-12-23T15:10:00.840Z" agent="Mozilla/5.0 (Windows NT 10.0; Win64; x64) AppleWebKit/537.36 (KHTML, like Gecko) Chrome/120.0.0.0 Safari/537.36" etag="DFRXOLlt7qGpXX80MhGi" version="22.1.11" type="google">
  <diagram name="第1頁" id="JN1x8GVay23u0XBk0DmT">
    <mxGraphModel grid="1" page="1" gridSize="10" guides="1" tooltips="1" connect="1" arrows="1" fold="1" pageScale="1" pageWidth="827" pageHeight="1169" math="0" shadow="0">
      <root>
        <mxCell id="0" />
        <mxCell id="1" parent="0" />
        <mxCell id="r5asVSNnrtlQC-LM1jwh-1" value="銷售人員" style="shape=umlActor;verticalLabelPosition=bottom;verticalAlign=top;html=1;outlineConnect=0;" vertex="1" parent="1">
          <mxGeometry x="50" y="100" width="30" height="60" as="geometry" />
        </mxCell>
        <mxCell id="r5asVSNnrtlQC-LM1jwh-2" value="" style="endArrow=none;html=1;rounded=0;exitX=1;exitY=0.3333333333333333;exitDx=0;exitDy=0;exitPerimeter=0;entryX=0.01;entryY=0.62;entryDx=0;entryDy=0;entryPerimeter=0;" edge="1" parent="1" source="r5asVSNnrtlQC-LM1jwh-1" target="r5asVSNnrtlQC-LM1jwh-3">
          <mxGeometry width="50" height="50" relative="1" as="geometry">
            <mxPoint x="80" y="100" as="sourcePoint" />
            <mxPoint x="130" y="50" as="targetPoint" />
          </mxGeometry>
        </mxCell>
        <mxCell id="r5asVSNnrtlQC-LM1jwh-3" value="登錄註冊" style="ellipse;whiteSpace=wrap;html=1;" vertex="1" parent="1">
          <mxGeometry x="120" y="20" width="100" height="30" as="geometry" />
        </mxCell>
        <mxCell id="r5asVSNnrtlQC-LM1jwh-4" value="個人中心" style="ellipse;whiteSpace=wrap;html=1;" vertex="1" parent="1">
          <mxGeometry x="120" y="60" width="100" height="30" as="geometry" />
        </mxCell>
        <mxCell id="r5asVSNnrtlQC-LM1jwh-5" value="商品信息管理" style="ellipse;whiteSpace=wrap;html=1;" vertex="1" parent="1">
          <mxGeometry x="120" y="100" width="100" height="30" as="geometry" />
        </mxCell>
        <mxCell id="r5asVSNnrtlQC-LM1jwh-6" value="銷售記錄管理" style="ellipse;whiteSpace=wrap;html=1;" vertex="1" parent="1">
          <mxGeometry x="120" y="140" width="100" height="30" as="geometry" />
        </mxCell>
        <mxCell id="r5asVSNnrtlQC-LM1jwh-7" value="首頁" style="ellipse;whiteSpace=wrap;html=1;" vertex="1" parent="1">
          <mxGeometry x="120" y="180" width="100" height="30" as="geometry" />
        </mxCell>
        <mxCell id="r5asVSNnrtlQC-LM1jwh-8" value="" style="endArrow=none;html=1;rounded=0;entryX=0;entryY=0.5;entryDx=0;entryDy=0;" edge="1" parent="1" target="r5asVSNnrtlQC-LM1jwh-4">
          <mxGeometry width="50" height="50" relative="1" as="geometry">
            <mxPoint x="80" y="120" as="sourcePoint" />
            <mxPoint x="270" y="130" as="targetPoint" />
          </mxGeometry>
        </mxCell>
        <mxCell id="r5asVSNnrtlQC-LM1jwh-9" value="" style="endArrow=none;html=1;rounded=0;entryX=0.008;entryY=0.519;entryDx=0;entryDy=0;entryPerimeter=0;" edge="1" parent="1" target="r5asVSNnrtlQC-LM1jwh-5">
          <mxGeometry width="50" height="50" relative="1" as="geometry">
            <mxPoint x="80" y="120" as="sourcePoint" />
            <mxPoint x="140" y="220" as="targetPoint" />
          </mxGeometry>
        </mxCell>
        <mxCell id="r5asVSNnrtlQC-LM1jwh-10" value="" style="endArrow=none;html=1;rounded=0;entryX=0;entryY=0.5;entryDx=0;entryDy=0;" edge="1" parent="1" target="r5asVSNnrtlQC-LM1jwh-6">
          <mxGeometry width="50" height="50" relative="1" as="geometry">
            <mxPoint x="80" y="120" as="sourcePoint" />
            <mxPoint x="290" y="100" as="targetPoint" />
          </mxGeometry>
        </mxCell>
        <mxCell id="r5asVSNnrtlQC-LM1jwh-11" value="" style="endArrow=none;html=1;rounded=0;exitX=0;exitY=0.5;exitDx=0;exitDy=0;" edge="1" parent="1" source="r5asVSNnrtlQC-LM1jwh-7">
          <mxGeometry width="50" height="50" relative="1" as="geometry">
            <mxPoint x="60" y="240" as="sourcePoint" />
            <mxPoint x="80" y="120" as="targetPoint" />
          </mxGeometry>
        </mxCell>
        <mxCell id="r5asVSNnrtlQC-LM1jwh-23" value="採購人員" style="shape=umlActor;verticalLabelPosition=bottom;verticalAlign=top;html=1;outlineConnect=0;" vertex="1" parent="1">
          <mxGeometry x="329" y="100" width="30" height="60" as="geometry" />
        </mxCell>
        <mxCell id="r5asVSNnrtlQC-LM1jwh-24" value="" style="endArrow=none;html=1;rounded=0;exitX=1;exitY=0.3333333333333333;exitDx=0;exitDy=0;exitPerimeter=0;entryX=0.01;entryY=0.62;entryDx=0;entryDy=0;entryPerimeter=0;" edge="1" parent="1" source="r5asVSNnrtlQC-LM1jwh-23" target="r5asVSNnrtlQC-LM1jwh-25">
          <mxGeometry width="50" height="50" relative="1" as="geometry">
            <mxPoint x="359" y="100" as="sourcePoint" />
            <mxPoint x="409" y="50" as="targetPoint" />
          </mxGeometry>
        </mxCell>
        <mxCell id="r5asVSNnrtlQC-LM1jwh-25" value="登錄" style="ellipse;whiteSpace=wrap;html=1;" vertex="1" parent="1">
          <mxGeometry x="399" y="20" width="100" height="30" as="geometry" />
        </mxCell>
        <mxCell id="r5asVSNnrtlQC-LM1jwh-26" value="個人中心" style="ellipse;whiteSpace=wrap;html=1;" vertex="1" parent="1">
          <mxGeometry x="399" y="60" width="100" height="30" as="geometry" />
        </mxCell>
        <mxCell id="r5asVSNnrtlQC-LM1jwh-27" value="商品信息管理" style="ellipse;whiteSpace=wrap;html=1;" vertex="1" parent="1">
          <mxGeometry x="399" y="100" width="100" height="30" as="geometry" />
        </mxCell>
        <mxCell id="r5asVSNnrtlQC-LM1jwh-28" value="銷售記錄管理" style="ellipse;whiteSpace=wrap;html=1;" vertex="1" parent="1">
          <mxGeometry x="399" y="140" width="100" height="30" as="geometry" />
        </mxCell>
        <mxCell id="r5asVSNnrtlQC-LM1jwh-29" value="首頁" style="ellipse;whiteSpace=wrap;html=1;" vertex="1" parent="1">
          <mxGeometry x="399" y="180" width="100" height="30" as="geometry" />
        </mxCell>
        <mxCell id="r5asVSNnrtlQC-LM1jwh-30" value="" style="endArrow=none;html=1;rounded=0;entryX=0;entryY=0.5;entryDx=0;entryDy=0;" edge="1" parent="1" target="r5asVSNnrtlQC-LM1jwh-26">
          <mxGeometry width="50" height="50" relative="1" as="geometry">
            <mxPoint x="359" y="120" as="sourcePoint" />
            <mxPoint x="549" y="130" as="targetPoint" />
          </mxGeometry>
        </mxCell>
        <mxCell id="r5asVSNnrtlQC-LM1jwh-31" value="" style="endArrow=none;html=1;rounded=0;entryX=0.008;entryY=0.519;entryDx=0;entryDy=0;entryPerimeter=0;" edge="1" parent="1" target="r5asVSNnrtlQC-LM1jwh-27">
          <mxGeometry width="50" height="50" relative="1" as="geometry">
            <mxPoint x="359" y="120" as="sourcePoint" />
            <mxPoint x="419" y="220" as="targetPoint" />
          </mxGeometry>
        </mxCell>
        <mxCell id="r5asVSNnrtlQC-LM1jwh-32" value="" style="endArrow=none;html=1;rounded=0;entryX=0;entryY=0.5;entryDx=0;entryDy=0;" edge="1" parent="1" target="r5asVSNnrtlQC-LM1jwh-28">
          <mxGeometry width="50" height="50" relative="1" as="geometry">
            <mxPoint x="359" y="120" as="sourcePoint" />
            <mxPoint x="569" y="100" as="targetPoint" />
          </mxGeometry>
        </mxCell>
        <mxCell id="r5asVSNnrtlQC-LM1jwh-33" value="" style="endArrow=none;html=1;rounded=0;exitX=0;exitY=0.5;exitDx=0;exitDy=0;" edge="1" parent="1" source="r5asVSNnrtlQC-LM1jwh-29">
          <mxGeometry width="50" height="50" relative="1" as="geometry">
            <mxPoint x="339" y="240" as="sourcePoint" />
            <mxPoint x="359" y="120" as="targetPoint" />
          </mxGeometry>
        </mxCell>
        <mxCell id="r5asVSNnrtlQC-LM1jwh-34" value="管理人" style="shape=umlActor;verticalLabelPosition=bottom;verticalAlign=top;html=1;outlineConnect=0;" vertex="1" parent="1">
          <mxGeometry x="85" y="410" width="30" height="60" as="geometry" />
        </mxCell>
        <mxCell id="r5asVSNnrtlQC-LM1jwh-35" value="" style="endArrow=none;html=1;rounded=0;exitX=1;exitY=0.3333333333333333;exitDx=0;exitDy=0;exitPerimeter=0;entryX=0.01;entryY=0.62;entryDx=0;entryDy=0;entryPerimeter=0;" edge="1" parent="1" source="r5asVSNnrtlQC-LM1jwh-34" target="r5asVSNnrtlQC-LM1jwh-36">
          <mxGeometry width="50" height="50" relative="1" as="geometry">
            <mxPoint x="115" y="410" as="sourcePoint" />
            <mxPoint x="165" y="360" as="targetPoint" />
          </mxGeometry>
        </mxCell>
        <mxCell id="r5asVSNnrtlQC-LM1jwh-36" value="登錄" style="ellipse;whiteSpace=wrap;html=1;" vertex="1" parent="1">
          <mxGeometry x="155" y="330" width="100" height="30" as="geometry" />
        </mxCell>
        <mxCell id="r5asVSNnrtlQC-LM1jwh-37" value="個人中心" style="ellipse;whiteSpace=wrap;html=1;" vertex="1" parent="1">
          <mxGeometry x="155" y="370" width="100" height="30" as="geometry" />
        </mxCell>
        <mxCell id="r5asVSNnrtlQC-LM1jwh-38" value="商品信息管理" style="ellipse;whiteSpace=wrap;html=1;" vertex="1" parent="1">
          <mxGeometry x="155" y="410" width="100" height="30" as="geometry" />
        </mxCell>
        <mxCell id="r5asVSNnrtlQC-LM1jwh-39" value="銷售記錄管理" style="ellipse;whiteSpace=wrap;html=1;" vertex="1" parent="1">
          <mxGeometry x="155" y="450" width="100" height="30" as="geometry" />
        </mxCell>
        <mxCell id="r5asVSNnrtlQC-LM1jwh-40" value="首頁" style="ellipse;whiteSpace=wrap;html=1;" vertex="1" parent="1">
          <mxGeometry x="155" y="490" width="100" height="30" as="geometry" />
        </mxCell>
        <mxCell id="r5asVSNnrtlQC-LM1jwh-41" value="" style="endArrow=none;html=1;rounded=0;entryX=0;entryY=0.5;entryDx=0;entryDy=0;" edge="1" parent="1" target="r5asVSNnrtlQC-LM1jwh-37">
          <mxGeometry width="50" height="50" relative="1" as="geometry">
            <mxPoint x="115" y="430" as="sourcePoint" />
            <mxPoint x="305" y="440" as="targetPoint" />
          </mxGeometry>
        </mxCell>
        <mxCell id="r5asVSNnrtlQC-LM1jwh-42" value="" style="endArrow=none;html=1;rounded=0;entryX=0.008;entryY=0.519;entryDx=0;entryDy=0;entryPerimeter=0;" edge="1" parent="1" target="r5asVSNnrtlQC-LM1jwh-38">
          <mxGeometry width="50" height="50" relative="1" as="geometry">
            <mxPoint x="115" y="430" as="sourcePoint" />
            <mxPoint x="175" y="530" as="targetPoint" />
          </mxGeometry>
        </mxCell>
        <mxCell id="r5asVSNnrtlQC-LM1jwh-43" value="" style="endArrow=none;html=1;rounded=0;entryX=0;entryY=0.5;entryDx=0;entryDy=0;" edge="1" parent="1" target="r5asVSNnrtlQC-LM1jwh-39">
          <mxGeometry width="50" height="50" relative="1" as="geometry">
            <mxPoint x="115" y="430" as="sourcePoint" />
            <mxPoint x="325" y="410" as="targetPoint" />
          </mxGeometry>
        </mxCell>
        <mxCell id="r5asVSNnrtlQC-LM1jwh-44" value="" style="endArrow=none;html=1;rounded=0;exitX=0;exitY=0.5;exitDx=0;exitDy=0;" edge="1" parent="1" source="r5asVSNnrtlQC-LM1jwh-40">
          <mxGeometry width="50" height="50" relative="1" as="geometry">
            <mxPoint x="95" y="550" as="sourcePoint" />
            <mxPoint x="115" y="430" as="targetPoint" />
          </mxGeometry>
        </mxCell>
        <mxCell id="r5asVSNnrtlQC-LM1jwh-45" value="公告" style="ellipse;whiteSpace=wrap;html=1;" vertex="1" parent="1">
          <mxGeometry x="155" y="290" width="100" height="30" as="geometry" />
        </mxCell>
        <mxCell id="r5asVSNnrtlQC-LM1jwh-46" value="商品分類" style="ellipse;whiteSpace=wrap;html=1;" vertex="1" parent="1">
          <mxGeometry x="155" y="530" width="100" height="30" as="geometry" />
        </mxCell>
        <mxCell id="r5asVSNnrtlQC-LM1jwh-47" value="價格分析" style="ellipse;whiteSpace=wrap;html=1;" vertex="1" parent="1">
          <mxGeometry x="155" y="570" width="100" height="30" as="geometry" />
        </mxCell>
        <mxCell id="r5asVSNnrtlQC-LM1jwh-48" value="" style="endArrow=none;html=1;rounded=0;entryX=0;entryY=0.5;entryDx=0;entryDy=0;" edge="1" parent="1" target="r5asVSNnrtlQC-LM1jwh-45">
          <mxGeometry width="50" height="50" relative="1" as="geometry">
            <mxPoint x="115" y="430" as="sourcePoint" />
            <mxPoint x="145" y="310" as="targetPoint" />
          </mxGeometry>
        </mxCell>
        <mxCell id="r5asVSNnrtlQC-LM1jwh-49" value="" style="endArrow=none;html=1;rounded=0;entryX=0;entryY=0.5;entryDx=0;entryDy=0;" edge="1" parent="1" target="r5asVSNnrtlQC-LM1jwh-46">
          <mxGeometry width="50" height="50" relative="1" as="geometry">
            <mxPoint x="115" y="430" as="sourcePoint" />
            <mxPoint x="155" y="550" as="targetPoint" />
          </mxGeometry>
        </mxCell>
        <mxCell id="r5asVSNnrtlQC-LM1jwh-50" value="" style="endArrow=none;html=1;rounded=0;exitX=0;exitY=0.5;exitDx=0;exitDy=0;" edge="1" parent="1" source="r5asVSNnrtlQC-LM1jwh-47">
          <mxGeometry width="50" height="50" relative="1" as="geometry">
            <mxPoint x="95" y="600" as="sourcePoint" />
            <mxPoint x="115" y="430" as="targetPoint" />
          </mxGeometry>
        </mxCell>
      </root>
    </mxGraphModel>
  </diagram>
</mxfile>
